<svg width="54" height="48" viewBox="0 0 54 48" fill="none" xmlns="http://www.w3.org/2000/svg">
<path d="M37.5264 0.785363L1.04982 25.8366C0.47003 26.2348 0.333333 27.043 0.744236 27.6413L13.9378 46.8521C14.3488 47.4506 15.152 47.6129 15.7318 47.2148L52.2084 22.1635C52.7883 21.7653 52.925 20.9574 52.514 20.3589L39.3204 1.14805C38.9095 0.549745 38.1063 0.387141 37.5264 0.785363Z" fill="#00B37E" fill-opacity="0.6"/>
<path d="M48.3985 18.3274L39.8852 5.93132C38.3076 7.01478 36.1221 6.57296 35.0035 4.94422L5.63744 25.1122C6.75602 26.7409 6.38378 28.9393 4.80608 30.0228L13.3194 42.4189C14.8971 41.3354 17.0826 41.7772 18.201 43.4057L47.5671 23.2378C46.4487 21.6093 46.8209 19.4109 48.3985 18.3274Z" fill="#00B37E" fill-opacity="0.5"/>
<path d="M32.2551 20.6954C30.0493 17.4835 25.7387 16.6121 22.6271 18.749C19.5156 20.8859 18.7814 25.2221 20.9872 28.434C23.1931 31.6459 27.5039 32.5176 30.6154 30.3806C33.727 28.2437 34.461 23.9073 32.2551 20.6954Z" fill="#00B37E" fill-opacity="0.9"/>
<path d="M17.0772 31.1192C15.9709 29.5082 14.1206 28.857 12.9446 29.6647C11.7685 30.4723 11.7121 32.433 12.8185 34.044C13.9251 35.6553 15.7753 36.3065 16.9513 35.4988C18.1273 34.6912 18.1838 32.7305 17.0772 31.1192Z" fill="#00B37E" fill-opacity="0.9"/>
<path d="M36.1651 18.0101C35.0587 16.3991 35.1152 14.4384 36.2911 13.6308C37.4673 12.823 39.3174 13.4743 40.4238 15.0853C41.5303 16.6966 41.4741 18.6571 40.2979 19.4649C39.122 20.2725 37.2717 19.6213 36.1651 18.0101Z" fill="#00B37E" fill-opacity="0.9"/>
</svg>
